<?xml version="1.0" encoding="utf-8"?>
<!-- Generator: Adobe Illustrator 22.0.0, SVG Export Plug-In . SVG Version: 6.00 Build 0)  -->
<svg version="1.1" id="Livello_1" xmlns="http://www.w3.org/2000/svg" xmlns:xlink="http://www.w3.org/1999/xlink" x="0px" y="0px"
	 viewBox="0 0 1920 526" style="enable-background:new 0 0 1920 526;" xml:space="preserve">
<style type="text/css">
	.st0{opacity:0.1;fill:#007BFF;}
	.st1{display:none;fill:#1DA71B;}
</style>
<path class="st0" d="M-138.5,27.2c13.7-1.8,100.7,126.4,290.8,70.2S425.3-50.8,522.8,35s-34.1,179.5,251.8,126.4
	s308.7-193.6,406.2-137.4c97.5,56.2,380.3,151.2,487.4,159.2c89.3,6.7,245.3,252.9-128.3,284.1s-302.2-53.1-437-48.4
	s-311.9,92.1-370.4,78.1c-58.5-14-175.5-237.3-303.8-192S-3.6,565.8-109.2,529.9C-214.8,494-565.7,85-138.5,27.2z"/>
<path class="st1" d="M-92.9,27.6c0,0,250.5,100.5,492,43.5s326.8-88.5,560.9,30s432.1-50.8,541.6-40.4S1920,195.6,1797,314.1
	s-114,187.5-289.5,156s-361.5-16.3-456,7.6c-94.5,23.9-387,5.9-495-91.6S-55.4,939.6-92.9,27.6z"/>
</svg>
