<?xml version="1.0" encoding="utf-8"?>
<!-- Generator: Adobe Illustrator 22.0.0, SVG Export Plug-In . SVG Version: 6.00 Build 0)  -->
<svg version="1.1" xmlns="http://www.w3.org/2000/svg" xmlns:xlink="http://www.w3.org/1999/xlink" x="0px" y="0px"
	 viewBox="0 0 1920 526" style="enable-background:new 0 0 1920 526;" xml:space="preserve">
<style type="text/css">
	.st0{display:none;}
	.st1{display:inline;opacity:0.1;fill:#007BFF;}
	.st2{fill:#1DA71B;}
	.st3{opacity:0.1;fill:#007BFF;}
</style>
<g id="Livello_1" class="st0">
	<path class="st1" d="M-138.5,27.2c13.7-1.8,100.7,126.4,290.8,70.2S425.3-50.8,522.8,35s-34.1,179.5,251.8,126.4
		s308.7-193.6,406.2-137.4c97.5,56.2,380.3,151.2,487.4,159.2c89.3,6.7,245.3,252.9-128.3,284.1s-302.2-53.1-437-48.4
		s-311.9,92.1-370.4,78.1c-58.5-14-175.5-237.3-303.8-192S-3.6,565.8-109.2,529.9C-214.8,494-565.7,85-138.5,27.2z"/>
	<path class="st2" d="M-92.9,27.6c0,0,250.5,100.5,492,43.5s326.8-88.5,560.9,30s432.1-50.8,541.6-40.4S1920,195.6,1797,314.1
		s-114,187.5-289.5,156s-361.5-16.3-456,7.6c-94.5,23.9-387,5.9-495-91.6S-55.4,939.6-92.9,27.6z"/>
</g>
<g id="Livello_2" class="st0">
	<path class="st1" d="M1348.1,96.5c-59.8,7.6-89.5,105.1-76,133.6c13.5,28.5,129,151.5,238.5,72c109.5-79.5,111-126,120-165
		c9-39-70.5-106.5-129-88.5S1407.5,88.9,1348.1,96.5z"/>
	<path class="st1" d="M450.1,462.6c0,0-141-25.5-67.5-84s85.5-83.8,87-50.1c1.5,33.6-1.5,56.1,18,78.6S507.1,465.6,450.1,462.6z"/>
</g>
<g id="Livello_3">
	<path class="st3" d="M2046,285.6c1-5.3-19.5-112.5-163.5-73.5s-88.5,110.8-189,50.9c-100.5-59.9-394.5-112.4-484.5-86.9
		s-459-172.5-726-121.5s-408,91.5-396,214.5s-319.5,279,385.5,231s190.5-297,781.5-96S2038.5,326.1,2046,285.6z"/>
</g>
</svg>
