<?xml version="1.0" encoding="utf-8"?>
<!-- Generator: Adobe Illustrator 22.0.0, SVG Export Plug-In . SVG Version: 6.00 Build 0)  -->
<svg version="1.1" xmlns="http://www.w3.org/2000/svg" xmlns:xlink="http://www.w3.org/1999/xlink" x="0px" y="0px"
	 viewBox="0 0 1920 526" style="enable-background:new 0 0 1920 526;" xml:space="preserve">
<style type="text/css">
	.st0{display:none;}
	.st1{display:inline;opacity:0.1;fill:#007BFF;}
	.st2{fill:#1DA71B;}
	.st3{opacity:0.1;fill:#007BFF;}
</style>
<g id="Livello_1" class="st0">
	<path class="st1" d="M1039.1,87c-11.8-1.6-87.3,109.6-252,60.9S550.7,19.4,466.2,93.8s29.6,155.5-218.2,109.6
		S-19.4,35.6-103.9,84.3s-329.5,131-422.3,138c-77.4,5.8-212.6,219.1,111.2,246.2s261.8-46,378.7-41.9s270.3,79.8,320.9,67.6
		c50.7-12.2,152-205.6,263.2-166.4s374.4,225.9,465.9,194.8S1409.3,137,1039.1,87z"/>
	<path class="st2" d="M-92.9,27.6c0,0,250.5,100.5,492,43.5s326.8-88.5,560.9,30s432.1-50.8,541.6-40.4S1920,195.6,1797,314.1
		s-114,187.5-289.5,156s-361.5-16.3-456,7.6c-94.5,23.9-387,5.9-495-91.6S-55.4,939.6-92.9,27.6z"/>
</g>
<g id="Livello_2" class="st0">
	<path class="st1" d="M1348.1,96.5c-59.8,7.6-89.5,105.1-76,133.6c13.5,28.5,129,151.5,238.5,72c109.5-79.5,111-126,120-165
		c9-39-70.5-106.5-129-88.5S1407.5,88.9,1348.1,96.5z"/>
	<path class="st1" d="M450.1,462.6c0,0-141-25.5-67.5-84s85.5-83.8,87-50.1c1.5,33.6-1.5,56.1,18,78.6S507.1,465.6,450.1,462.6z"/>
</g>
<g id="Livello_3" class="st0">
	<path class="st1" d="M2046,285.6c1-5.3-19.5-112.5-163.5-73.5s-88.5,110.8-189,50.9c-100.5-59.9-394.5-112.4-484.5-86.9
		s-459-172.5-726-121.5s-408,91.5-396,214.5s-319.5,279,385.5,231s190.5-297,781.5-96S2038.5,326.1,2046,285.6z"/>
</g>
<g id="Livello_4">
	<path class="st3" d="M1350.1,119.1c-33.8-3.7-105-88.5-153-64.5s-57,49.5-93,81s-129,13.5-112.5,84
		c16.5,70.5,109.1,70.5,178.3,109.5s82.7,66,123.2,97.5c40.5,31.5,214.5-34.5,91.5-103.5S1594.6,146.1,1350.1,119.1z"/>
</g>
</svg>
