<?xml version="1.0" encoding="utf-8"?>
<!-- Generator: Adobe Illustrator 22.0.0, SVG Export Plug-In . SVG Version: 6.00 Build 0)  -->
<svg version="1.1" id="Livello_1" xmlns="http://www.w3.org/2000/svg" xmlns:xlink="http://www.w3.org/1999/xlink" x="0px" y="0px"
	 viewBox="0 0 1920 526" style="enable-background:new 0 0 1920 526;" xml:space="preserve">
<style type="text/css">
	.st0{opacity:0.1;fill:#007BFF;enable-background:new    ;}
</style>
<path class="st0" d="M851.9,132.2c-45.5,11-93.3,7.8-136.9-9.2C599.2,77.7,537.2,31.3,466.2,93.8c-84.5,74.4,29.6,155.5-218.2,109.6
	S-19.4,35.6-103.9,84.3s-329.5,131-422.3,138c-77.4,5.8-212.6,219.1,111.2,246.2s261.8-46,378.7-41.9s270.3,79.8,320.9,67.6
	c50.7-12.2,152-205.6,263.2-166.4s374.4,225.9,465.9,194.8c90.3-30.7,387.4-376,40.1-433.4c-5.5-0.9-11-1.2-16.5-0.9
	c-5.4,0.3-10.7,1.4-15.9,2.9L851.9,132.2z"/>
</svg>
