<svg id="Livello_1" data-name="Livello 1" xmlns="http://www.w3.org/2000/svg" viewBox="0 0 40 40"><defs><style>.cls-1{fill:red;}.cls-2{fill:blue;}.cls-3{fill:lime;}</style></defs><title>logo</title><g id="Livello_1-2" data-name="Livello 1"><polygon points="24.38 4.63 22.19 2.44 22.19 2.44 20 0.25 17.81 2.44 15.61 4.64 13.42 6.83 13.42 6.83 11.22 9.03 11.22 9.03 9.03 11.22 11.22 13.41 13.42 11.22 13.42 11.22 15.62 9.03 15.62 9.03 17.81 6.83 20 4.64 20 4.64 22.19 6.83 24.38 9.03 26.57 6.83 24.38 4.63"/><polygon class="cls-1" points="4.64 20 6.83 17.81 9.03 15.61 6.83 13.42 4.64 15.61 2.44 17.81 0.25 20 2.44 22.19 4.64 24.39 6.83 26.58 9.03 24.39 6.83 22.19 4.64 20"/><polygon class="cls-2" points="37.56 17.81 35.36 15.61 33.17 13.42 30.98 15.61 33.17 17.81 35.36 20 33.17 22.19 30.98 24.39 33.17 26.58 35.36 24.39 37.56 22.19 39.75 20 37.56 17.81"/><polygon points="28.77 26.59 26.58 28.78 26.58 28.78 24.39 30.98 24.38 30.98 22.19 33.17 20 35.36 17.81 33.17 15.62 30.98 13.43 33.17 15.62 35.37 15.62 35.37 17.81 37.56 17.81 37.56 20 39.75 22.19 37.56 24.39 35.36 26.58 33.17 26.58 33.17 28.77 30.98 28.77 30.98 30.97 28.78 28.77 26.59"/><polygon class="cls-3" points="28.77 9.03 26.58 11.22 24.39 13.42 22.19 15.61 20 17.81 17.81 20 15.61 22.19 13.42 24.39 11.22 26.58 11.22 26.58 9.03 28.77 11.22 30.97 13.42 28.77 13.42 28.77 15.61 26.58 17.81 24.39 20 22.19 22.19 20 24.39 17.81 26.58 15.61 28.77 13.42 30.98 11.22 28.77 9.03"/></g></svg>