<?xml version="1.0" encoding="utf-8"?>
<!-- Generator: Adobe Illustrator 22.0.0, SVG Export Plug-In . SVG Version: 6.00 Build 0)  -->
<svg version="1.1" id="b4f7138d-771a-4302-9114-b1a94238dcbb"
	 xmlns="http://www.w3.org/2000/svg" xmlns:xlink="http://www.w3.org/1999/xlink" x="0px" y="0px" viewBox="0 0 772 671.4"
	 style="enable-background:new 0 0 772 671.4;" xml:space="preserve">
<style type="text/css">
	.st0{fill:#4285F4;}
	.st1{opacity:0.1;enable-background:new    ;}
	.st2{fill:#2F2E41;}
	.st3{fill:#FBBEBE;}
	.st4{fill:#D0CDE1;}
	.st5{fill:#575A89;}
	.st6{fill:#3F3D56;}
</style>
<title>social_girl</title>
<path class="st0" d="M772,459.2c0,117.2-172.8,212.2-386,212.2c-114.5,0-217.4-27.4-288.1-71c-46.1-28.4-78.5-63.7-91.6-102.7
	C2.2,485.3,0,472.3,0,459.2C0,342,319.9-186.7,386,247S772,342,772,459.2z"/>
<path class="st1" d="M577.8,536.2c0,43.3-136.7,78.4-305.3,78.4c-64.9,0-125.1-5.2-174.6-14.1c-46.1-28.4-78.5-63.7-91.6-102.7
	c52.3-23.8,151.9-40,266.2-40C441.1,457.8,577.8,492.9,577.8,536.2z"/>
<path class="st2" d="M357.5,89.8C333.3,48.9,285.4,47,285.4,47s-46.6-6-76.6,56.3c-27.9,58-66.4,114.1-6.2,127.7l10.9-33.8l6.7,36.4
	c8.6,0.6,17.2,0.8,25.8,0.4c64.5-2.1,125.8,0.6,123.9-22.5C367.2,180.6,380.7,129.1,357.5,89.8z"/>
<path class="st2" d="M199.2,447.8c-0.9,4.5-1.6,9-3.1,13.3c-1.5,4.3-3.9,8.2-5.2,12.5c-4.4,13.7,1.7,29,11.5,39.6
	c8.5,9.1,19.4,15.6,31.5,18.7c8.8,2.2,18,2.5,27.1,2.8c25.2,0.9,50.9,1.6,74.8-6.5c7.5-2.6,14.8-5.9,21.7-9.9c2.2-1,4.1-2.6,5.6-4.4
	c1.8-2.6,2.1-5.9,2-9.1c-0.1-10.7-2.2-21.3-1.7-31.9c0.3-5.9,1.4-11.8,0.8-17.7c-1.2-13.3-11.8-25.3-24.9-28.1
	c-6.8-1.5-13.8-0.7-20.7,0c-17.9,1.7-35.8,2.5-53.8,2.4c-18.3-0.1-36.6-2.9-54.8-3.2c-5.4-0.1-5.3,1.6-7,6.8
	C201.5,437.9,200.2,442.8,199.2,447.8z"/>
<path class="st3" d="M251.2,184.5c-0.9,4.6-1.8,9.4-4.6,13.2c-3.2,4.4-8.4,6.9-11.8,11c-5.2,6.3-5.5,15.1-5.5,23.3
	c0,7.5,0.1,15.5,4.3,21.7c2.7,4,6.8,6.9,10.9,9.6c15.7,10.6,32.6,21.3,51.5,21.7c7.8,0.1,16.2-1.9,21.4-7.8c2.2-2.8,4-5.9,5.2-9.2
	c4.8-11.9,7.8-24.5,8.7-37.3c0.4-6,0.4-12.2-1.7-17.9c-2.3-6.4-6.9-11.7-10-17.7c-3.6-7.2-5-15.4-3.8-23.4c0.2-0.6,0.1-1.2-0.1-1.7
	c-0.5-0.6-1.3-0.9-2-0.8l-37.5-2.7c-3.5-0.2-7-0.6-10.4-1.2c-2-0.4-7.4-3.3-9.3-2.5C252.9,164.1,252,180.7,251.2,184.5z"/>
<path class="st1" d="M251.2,185.7c-0.9,4.6-1.8,9.4-4.6,13.2c-3.2,4.4-8.4,6.9-11.8,11c-5.2,6.3-5.5,15.1-5.5,23.3
	c0,7.5,0.1,15.5,4.3,21.7c2.7,4,6.8,6.9,10.9,9.6c15.7,10.6,32.6,21.3,51.5,21.7c7.8,0.1,16.2-1.9,21.4-7.8c2.2-2.8,4-5.9,5.2-9.2
	c4.8-11.9,7.8-24.5,8.7-37.3c0.4-6,0.4-12.2-1.7-17.9c-2.3-6.4-6.9-11.7-10-17.7c-3.6-7.2-5-15.4-3.8-23.4c0.2-0.6,0.1-1.2-0.1-1.7
	c-0.5-0.6-1.3-0.9-2-0.8l-37.5-2.7c-3.5-0.2-7-0.6-10.4-1.2c-2-0.4-7.4-3.3-9.3-2.5C252.9,165.3,252,181.9,251.2,185.7z"/>
<circle class="st3" cx="287.1" cy="134.6" r="55"/>
<path class="st4" d="M259,257.7c2.9,3,5.9,6,9.7,7.7c3.7,1.7,7.9,2.2,12.1,2.3c9.9,0.3,20.7-1.5,27.5-8.7c8.9-9.2,8.6-24,15.6-34.7
	c0.6-1,1.3-1.8,2.2-2.5c1.2-0.6,2.5-0.9,3.8-0.9c8.8-0.1,16.5,5.6,23.4,11.1c3.1,2.4,6.3,5,8.2,8.4c1.4,2.7,2.3,5.5,2.8,8.5
	c3.4,16.8,4.5,33.9,5.6,50.9c0.6,9.4,1.2,18.9,1.2,28.3c-0.1,31.1-7.4,61.7-14.6,92c-0.9,3.9-2.2,8.3-5.7,10.1
	c-1.6,0.7-3.3,1.1-5,1.2c-20.6,2.4-41.2,4.8-62,5.2c-8.1,0.1-16.2-0.1-24.3-0.6c-1.4,0-2.8-0.3-4.1-0.7c-1.8-0.9-3.3-2.2-4.5-3.8
	c-11.2-14.1-11.9-33.7-11.8-51.7c0.2-44.1,1.8-88.2,4.7-132.3c0.2-3.6,0.3-8.1-2.3-10.9C246.2,244.3,252.8,251.3,259,257.7z"/>
<path class="st5" d="M247.3,194.2c-1.9,3.4-15.5,11.7-18.2,14.5c-14.8,15.6-41.7,15-55.2,31.7c-4.8,5.9-7.2,13.2-9,20.6
	c-2.6,10.4-3.9,21.7,0.4,31.4c4.1,9.4,12.9,15.9,18.8,24.3c6.5,9.2,9.4,20.4,12.2,31.3c2.1,8.1,4.1,16.3,3.3,24.6
	c-0.9,9.4-5.5,18.1-8.2,27.1s-3.2,19.9,3.1,27c4.6,5.2,11.7,7.3,18.6,8.5c8.8,1.5,17.6,1.9,26.5,2.3c7.8,0.3,16.5,0.4,22.5-4.6
	c4.8-4,6.8-10.4,7.1-16.6c0.3-6.2-1-12.3-1.8-18.5c-0.8-6.4-1.2-12.8-1.4-19.2c-1.2-28.8-1.4-57.6-0.5-86.4c0.2-6,0.4-12.1-0.9-17.9
	c-1.7-7.7-5.8-14.6-9.3-21.7c-6.9-14.1-10.2-27.7-9.1-43.3C247.2,194,253.9,182.3,247.3,194.2z"/>
<path class="st5" d="M324.5,195.4c2.8,2.9,12.4,3.9,16,5.7c3.3,1.7,7,2.6,10.5,3.6c13.1,3.8,25.6,9.5,37,17c2.4,1.4,4.5,3.2,6.2,5.3
	c2,2.8,2.7,6.3,3.4,9.7c1.8,8.7,3.5,17.6,3.1,26.5c-0.4,9.4-3.3,18.6-6.1,27.6l-10.5,33.7c-7.9,25.2-15.8,50.6-18,76.8
	c-1.2,14.6-0.7,29.2,1.6,43.6c0.2,1.5,0.4,3.1-0.5,4.2c-0.7,0.7-1.6,1.1-2.6,1.2c-5.1,0.8-10-1.8-14.6-4.1
	c-14.1-7-29.1-11.9-44.6-14.6c6.1-8.8,10.7-18.4,13.9-28.6c1.8-6.5,3.2-13,4.2-19.7l4.9-28.4c1.8-10.4,3.6-20.8,4.2-31.4
	c0.4-3.9,0.1-7.9-0.7-11.8c-0.9-3.7-2.8-7.2-4.5-10.7c-8.1-16.8-11.9-36-8.7-54.4c1.4-8,4.1-16.1,3-24.2c-1.1-7.8,0-13.8-2-21.5
	C311.6,169.7,319.2,189.9,324.5,195.4z"/>
<path class="st5" d="M173.8,266.9c-3.7,7.6-9.8,14.2-11.9,22.4c-0.8,3.8-1.2,7.8-1,11.7c0,5.9-0.1,12,1.7,17.6
	c1.2,3.6,3.1,7,4.4,10.5c1.9,5,2.8,10.3,2.5,15.6c-0.4,7.4-2.9,14.5-3.1,21.9c-0.3,11.6,5.1,22.5,10.3,32.8
	c5-12.4,19.1-18.3,31.4-13.3c1.3,0.5,2.5,1.1,3.7,1.9c1.4-1.3,1.5-3.4,1.6-5.2c0.4-13.4,0.8-26.9,1.1-40.3
	c0.6-20.8,1.1-41.9-3.7-62.1c-2.2-9.1-5.5-18.2-11.7-25.3c-3.2-3.7-14.3-13.6-19.6-9.4c-2.4,1.9-1.8,7-2.2,9.6
	C176.7,259.2,175.5,263.2,173.8,266.9z"/>
<path class="st5" d="M401.9,244.9c1.7,5.4,1.8,11.2,1.9,16.9c0.1,11.6-0.1,23.2-0.5,34.9c-0.2,5.9-0.5,12-2.3,17.7
	c-1.2,3.7-3,7.2-4.3,11c-3.7,11.2-1.7,23.3-1.4,35.1c0.2,3.8-0.1,7.6-1,11.3c-1.9,7.3-7.2,13.2-10.8,19.8
	c-3.5,6.3-5.6,13.3-9.7,19.2s-11.3,10.5-18.2,8.7c-5.3-1.4-9-6-11.6-10.8c-5.6-10.5-7.6-22.6-5.5-34.3c2.6-14.3,11-26.9,14-41.1
	c4.2-19.5-2.2-39.6-2-59.5c-0.1-3.1,0.3-6.2,1.3-9.2c1.6-4.6,5-8.2,8.1-11.8c3.9-4.6,7.6-9.4,10.9-14.4c2.3-3.4,5.3-12,9.3-12.7
	C389.3,223.9,399.7,238,401.9,244.9z"/>
<path class="st2" d="M127.5,439.1c-4.9-1.2-10-1.8-15.1-1.6c-20.8,1.1-36.7,18.9-35.5,39.7c0.1,1.6,0.3,3.2,0.6,4.7
	c1,5.7,3.4,11.1,6,16.3c4,8.1,8.8,16.2,16.2,21.4c4.3,3,9.4,4.9,14.3,6.8l39,14.7c5.7,2.2,11.5,4.3,17.3,6.3
	c29.1,10.1,59.5,16.1,90.3,17.9c9.4,0.6,18.9,0.7,28-1.4c2.2-0.5,4.5-1.3,5.7-3.1c0.7-1.3,1.2-2.7,1.3-4.2l2.4-16.8
	c0.3-2.4,0.7-4.9-0.2-7.1c-1.1-2.8-3.9-4.6-6.5-6.1c-25.7-14.7-55.6-22.9-77.2-43.1c-5.1-4.8-9.3-12.3-15.5-15.5
	c-7-3.7-15.3-5.8-22.5-9.1C160.2,451.6,144.6,443.1,127.5,439.1z"/>
<path class="st1" d="M166.5,461.8c13.8,4.3,72,34.3,82,44.7c-1.3,0.5-46.7-25-48.1-25.4c-12.4-3.7-24.8-7.5-36.6-12.9
	c-2.4-1.1-15.4-6.2-14.8-9.2C149.7,455.7,164,461,166.5,461.8z"/>
<path class="st3" d="M338.6,574.2c0.8,0.1,1.6-0.2,2.2-0.6c0.6-0.7,0.8-1.6,0.7-2.5c0-7.6,0-15.3-0.1-22.9c-6.6-3.1-14-4.1-21.2-5.1
	l-33.7-4.5c0.8,0.1-5.3,14.5-4.3,16.5c1.6,3.4,14.1,6.4,17.7,8C312,568.6,324.8,574.7,338.6,574.2z"/>
<path class="st3" d="M232.7,548.1c-6.4,1-13.5,1.9-17.6,6.9c-5.2,6.3-3,15.7-0.5,23.5c0.4,1.6,1.1,3,2.2,4.3
	c1.7,1.7,4.3,1.9,6.7,2.1c5.8,0.4,12,0.7,17.1-2.2c2.4-1.3,4.4-3.3,6.6-4.9c3.7-2.5,7.9-4.4,12.2-5.6c8-2.5,16.2-4.2,24.5-5
	c3.3-0.3,6.6-0.5,9.6-1.7s5.9-3.4,6.8-6.6c1.2-4.2-1.2-8.4-3.6-12.1c-2.9-4.5-6-9.3-10.3-12.7c-6.3-4.9-9.4-1.1-15.7,2
	C258.7,541.9,245.9,546,232.7,548.1z"/>
<path class="st2" d="M216,553.8l-40.5-12c-4.9-1.5-9.9-2.9-15.1-2.9s-10.5,1.7-13.8,5.6c-3.1,3.7-4,8.7-4.8,13.5l-1.7,10.2
	c-0.9,5.2-1.7,10.5-0.9,15.7s3.4,10.4,8,12.9c5.6,3.1,12.5,1.6,18.7,0.3c12.6-2.6,25.5-4,38.3-4.1c4.8-0.1,9.9,0,14.2-2.3
	c5.1-2.7,8.1-8.4,8.7-14.1C228,567.9,225.1,556.5,216,553.8z"/>
<path class="st2" d="M354.5,543.4c5.2-0.9,9.9-3.9,14.9-5.7c7.1-2.5,14.7-2.5,22.2-2.4c2.8,0,5.7,0.1,8,1.6
	c3.3,2.2,4.1,6.6,4.7,10.5c1.1,7.9,2.3,15.8,3.4,23.7c0.6,4.5,1.3,9,0.3,13.4s-4,8.6-8.3,9.8c-5.3,1.4-10.5-2-15.5-4.2
	c-12.5-5.5-27-4.1-40-8.3c-2.4-0.8-5-1.9-6-4.3c-0.4-1.3-0.6-2.7-0.5-4.1c0.2-7.6-1.4-18,0.9-25.3
	C340.6,541.6,348.6,543.4,354.5,543.4z"/>
<path class="st2" d="M440.1,429.6c8.1-2,16.5-2.6,24.7-1.7c6.6,0.7,13.4,2.6,18.3,7.1c5.9,5.6,7.8,14.2,7.9,22.3
	c0.3,16.1-5.1,31.9-15.1,44.5c-2.5,3.2-5.4,6-8.7,8.3c-3.5,2.2-7.3,4-11.3,5.4l-87.4,34.5c-23,9.1-46.1,18.2-70.1,24.1
	c-2.7,1.3-6,0.2-7.3-2.5c0,0,0-0.1-0.1-0.1c-7.7-10.9-14.1-22.7-19.2-35c-0.8-1-0.7-2.5,0.3-3.3c0.2-0.2,0.5-0.3,0.7-0.4l61.8-35.5
	c4.4-2.5,8.9-5.1,12.6-8.7c2.7-2.6,4.9-5.6,6.5-9c1.3-2.7,1.4-9,3-11c1.6-1.9,7.1-2.1,9.6-2.9c3.6-1.1,7.1-2.4,10.5-4
	c13.8-6.2,26.1-15.2,39.4-22.4C423.9,435.1,431.8,431.9,440.1,429.6z"/>
<path class="st1" d="M405,456.1c-10.6,8-24.4,15.3-34.9,23.5c-3.6,2.8-63.5,36.5-64.3,40.9c9.8,1.7,72.4-42.1,81.3-46.5
	s16.9-10.5,24.7-16.6c2-1.6,10.5-6.2,4.7-8C413.4,448.5,407.4,454.5,405,456.1z"/>
<path class="st6" d="M331.9,196.2h-93.2c-7.9,0-14.3,6.4-14.3,14.3v5.2h-1v11.7h1v8.2h-1v7h1v86.3c0,7.9,6.4,14.3,14.3,14.3h93.2
	c7.9,0,14.3-6.4,14.3-14.3V210.5C346.2,202.6,339.8,196.2,331.9,196.2z"/>
<polygon class="st2" points="346.8,85.8 299.5,61.1 234.2,71.2 220.7,130.9 254.3,129.6 263.7,107.7 263.7,129.2 279.2,128.6 
	288.2,93.7 293.8,130.9 349,129.8 "/>
<path class="st3" d="M186.1,421.9c2.3,3.5,5.1,6.9,8.8,8.8c4.7,2.4,10.5,1.9,15.2-0.4c4.7-2.5,8.5-6.3,11-11
	c5.1-9.1,6.2-19.9,5.6-30.3s-2.9-20.7-3.8-31c-0.7-7.5-0.8-15.1-0.8-22.7c0-1.6,0-3.3,1-4.6c1.1-1.6,3.2-2,5.1-2.5
	c10.4-3.1,17.3-12.8,22.2-22.4c3.3-6.4,6.2-13.5,5.5-20.7c-0.6-7.2-5.8-14.4-13-15.2c-5.9-0.6-11.4,3.2-15.7,7.3
	c-10.8,10.5-17.7,24.4-19.7,39.3c-0.9,7.3-0.7,14.8-2.7,21.9c-4.2,15.2-17.5,24.5-24.2,38.1C173.2,391.5,177.3,408.6,186.1,421.9z"
	/>
<path class="st3" d="M381.8,363.9c-3.1,7.1-8.9,12.7-16.1,15.4c-4.4,1.8-9.3,2.1-14,0.9c-4.7-1.3-8.4-4.7-10.2-9.2
	c-0.7-2.2-1.1-4.5-1.2-6.9c-0.7-10.2-0.4-20.8,3.3-30.3c1.4-3.7,3.4-7.2,4.5-11c1.3-4.3,1.5-8.9,1.7-13.4l1.2-27.9
	c0.2-2,0.1-4.1-0.4-6.1c-1.2-4-5-6.7-8.5-9.1c-8.4-5.8-16.6-12.6-20.7-22c-1.2-2.9-2.1-6-1.4-9.1c1.1-5.5,6.7-9.1,12.3-10.3
	c14.8-3.2,29.4,6.1,32.7,20.9c0.1,0.4,0.2,0.8,0.2,1.2c0.5,3.1,0.5,6.4,0.9,9.5c0.7,6.7,2.8,13.3,4.2,19.9
	c3.3,16.4,1.6,33.3,4.9,49.7C377.9,340,388.2,348.9,381.8,363.9z"/>
<circle class="st4" cx="286.6" cy="247.3" r="11.7"/>
<path class="st6" d="M655,291.5c-34.6,0-62.7,28.1-62.7,62.7s28.1,62.7,62.7,62.7s62.7-28.1,62.7-62.7v0
	C717.7,319.5,689.6,291.5,655,291.5z M686,338.2c0,0.7,0,1.4,0,2.1c0,21.1-16.1,45.5-45.5,45.5c-8.7,0-17.2-2.5-24.5-7.2
	c1.3,0.2,2.5,0.2,3.8,0.2c7.2,0,14.2-2.4,19.9-6.8c-6.8-0.1-12.8-4.6-14.9-11.1c1,0.2,2,0.3,3,0.3c1.4,0,2.8-0.2,4.2-0.6
	c-7.5-1.5-12.8-8.1-12.8-15.7v-0.2c2.2,1.2,4.7,1.9,7.3,2c-7-4.7-9.2-14-5-21.4c8.1,10,20.1,16.1,32.9,16.7
	c-0.3-1.2-0.4-2.4-0.4-3.6c0-8.8,7.1-16,16-16c4.4,0,8.7,1.8,11.7,5.1c3.6-0.7,7-2,10.1-3.9c-1.2,3.7-3.7,6.8-7,8.8
	c3.2-0.4,6.3-1.2,9.2-2.5C691.8,333.2,689.1,336,686,338.2z"/>
<circle class="st6" cx="557.8" cy="210.6" r="11.1"/>
<path class="st6" d="M571.7,182.8h-27.8c-7.7,0-13.9,6.2-13.9,13.9v27.8c0,7.7,6.2,13.9,13.9,13.9h27.8c7.7,0,13.9-6.2,13.9-13.9
	v-27.8C585.6,189,579.4,182.8,571.7,182.8z M557.8,227.3c-9.2,0-16.7-7.5-16.7-16.7s7.5-16.7,16.7-16.7c9.2,0,16.7,7.5,16.7,16.7
	C574.5,219.8,567,227.3,557.8,227.3z M575.9,196.7c-2.3,0-4.2-1.9-4.2-4.2c0-2.3,1.9-4.2,4.2-4.2c2.3,0,4.2,1.9,4.2,4.2
	C580.1,194.8,578.2,196.7,575.9,196.7C575.9,196.7,575.9,196.7,575.9,196.7L575.9,196.7z"/>
<path class="st6" d="M557.1,145.1c-36.5,0-66.1,29.6-66.1,66.1s29.6,66.1,66.1,66.1c36.5,0,66.1-29.6,66.1-66.1v0
	C623.1,174.7,593.6,145.1,557.1,145.1z M591.2,224.5c0,10.7-8.7,19.5-19.5,19.5h-27.8c-10.7,0-19.5-8.7-19.5-19.5v-27.8
	c0-10.7,8.7-19.5,19.5-19.5h27.8c10.7,0,19.5,8.7,19.5,19.5V224.5z"/>
<path class="st6" d="M451,0.5c-35.9,0-65,29.1-65,65s29.1,65,65,65s65-29.1,65-65S486.9,0.5,451,0.5L451,0.5z M471.5,39.8h-8.3
	c-5.7,0-6.8,2.7-6.8,6.6v8.4h13.5L468.2,68h-11.8v35.8h-15.1V68h-10.8V54.8h10.8v-9.8c0-11.7,8.1-18.1,18.6-18.1
	c5,0,10.4,0.4,11.6,0.5V39.8z"/>
</svg>
