<?xml version="1.0" encoding="utf-8"?>
<!-- Generator: Adobe Illustrator 22.0.0, SVG Export Plug-In . SVG Version: 6.00 Build 0)  -->
<svg version="1.1" id="bafbdcdd-db4a-4743-9ceb-46364dc67d6e"
	 xmlns="http://www.w3.org/2000/svg" xmlns:xlink="http://www.w3.org/1999/xlink" x="0px" y="0px" viewBox="0 0 851 746.1"
	 style="enable-background:new 0 0 851 746.1;" xml:space="preserve">
<style type="text/css">
	.st0{fill:#3F3D56;}
	.st1{fill:#4285F4;}
	.st2{fill:#FFFFFF;}
	.st3{fill:#2F2E41;}
	.st4{fill:#FBBEBE;}
	.st5{opacity:0.1;enable-background:new    ;}
	.st6{fill:#595959;}
	.st7{fill:#D0CDE1;}
</style>
<title>ideas</title>
<ellipse class="st0" cx="474.5" cy="691.6" rx="308.5" ry="54.5"/>
<path class="st1" d="M269.2,338.7c45.3-67.3,27.4-158.6-39.9-203.9S70.7,107.4,25.4,174.7S-2,333.3,65.3,378.6
	c40.1,26.9,90.8,32.5,135.7,14.8c7.1,25.3,33.3,40,58.6,32.9c25.3-7.1,40-33.3,32.9-58.6C289.1,355.3,280.6,344.8,269.2,338.7z"/>
<path class="st2" d="M66.7,227.3h161c3.8,0,6.9,3.1,6.9,6.9v0c0,3.8-3.1,6.9-6.9,6.9h-161c-3.8,0-6.9-3.1-6.9-6.9v0
	C59.8,230.4,62.9,227.3,66.7,227.3z"/>
<path class="st2" d="M66.7,250.3h161c3.8,0,6.9,3.1,6.9,6.9v0c0,3.8-3.1,6.9-6.9,6.9h-161c-3.8,0-6.9-3.1-6.9-6.9v0
	C59.8,253.4,62.9,250.3,66.7,250.3z"/>
<path class="st2" d="M66.7,273.3h161c3.8,0,6.9,3.1,6.9,6.9v0c0,3.8-3.1,6.9-6.9,6.9h-161c-3.8,0-6.9-3.1-6.9-6.9v0
	C59.8,276.4,62.9,273.3,66.7,273.3z"/>
<path class="st1" d="M581.8,229.4c-45.3-67.3-27.4-158.6,39.9-203.9S780.3-1.9,825.6,65.4c45.3,67.3,27.4,158.6-39.9,203.9
	c-40.1,26.9-90.8,32.5-135.7,14.8c-7.1,25.3-33.3,40-58.6,32.9c-25.3-7.1-40-33.3-32.9-58.6C561.9,246,570.4,235.5,581.8,229.4z"/>
<path class="st2" d="M784.3,131.8h-161c-3.8,0-6.9-3.1-6.9-6.9v0c0-3.8,3.1-6.9,6.9-6.9h161c3.8,0,6.9,3.1,6.9,6.9v0
	C791.2,128.7,788.1,131.8,784.3,131.8z"/>
<path class="st2" d="M784.3,154.8h-161c-3.8,0-6.9-3.1-6.9-6.9v0c0-3.8,3.1-6.9,6.9-6.9h161c3.8,0,6.9,3.1,6.9,6.9v0
	C791.2,151.7,788.1,154.8,784.3,154.8z"/>
<path class="st2" d="M784.3,177.8h-161c-3.8,0-6.9-3.1-6.9-6.9v0c0-3.8,3.1-6.9,6.9-6.9h161c3.8,0,6.9,3.1,6.9,6.9v0
	C791.2,174.7,788.1,177.8,784.3,177.8z"/>
<path class="st1" d="M326.7,631.5c-25.3-37.6-15.3-88.5,22.3-113.8c37.6-25.3,88.5-15.3,113.8,22.3c25.3,37.6,15.3,88.5-22.3,113.8
	c-22.4,15-50.7,18.1-75.8,8.3c-4,14.1-18.6,22.3-32.7,18.4c-14.1-4-22.3-18.6-18.4-32.7C315.6,640.8,320.3,634.9,326.7,631.5
	L326.7,631.5z"/>
<circle class="st2" cx="362.6" cy="583.8" r="9.5"/>
<circle class="st2" cx="394.9" cy="583.8" r="9.5"/>
<circle class="st2" cx="427.3" cy="583.8" r="9.5"/>
<path class="st3" d="M404.4,289.4c0,0,42.3,1.2,49.3,3.7s10.1,20.7,10.1,20.7L431,324.2l-24.6-1.4l-18.5,1.3l10.3-27.1L404.4,289.4z
	"/>
<path class="st4" d="M406.3,275.5c0,0,2.8,10.8-3.4,18.4s26.6,34.8,26.6,34.8l17.3-3c0,0-3.8-33.1,1.3-41.4S406.3,275.5,406.3,275.5
	z"/>
<path class="st5" d="M406.3,275.5c0,0,2.8,10.8-3.4,18.4s26.6,34.8,26.6,34.8l17.3-3c0,0-3.8-33.1,1.3-41.4S406.3,275.5,406.3,275.5
	z"/>
<polygon class="st4" points="521.2,590.1 483.1,640.7 509.1,655.9 544.9,597.3 "/>
<path class="st3" d="M494.5,641.6c0,0-14-16.3-13.4-12.7s-10,34.5-0.1,37.5s94.6,10.9,95.8,1.3s-25.3-16.3-25.3-16.3
	s-15.7-15.1-19.2-13.6S494.5,641.6,494.5,641.6z"/>
<polygon class="st4" points="512.7,638.4 543.1,690.3 566.1,677 535.4,634.5 "/>
<path class="st6" d="M560.8,515l-9,12.8c0,0-43.1,59.9-38.5,64.7s23.6,23.1,33.3,19.6s44.1-64.7,44.1-64.7l-9-35.9L560.8,515z"/>
<path class="st6" d="M375.1,502.9c0,0,9.7,18,34.1,24.1s50,18.6,50.9,18.4s3.5-1.5,4.1,2.1s7.3,10,7.3,10s27,91.8,37.3,91.9
	s31.5-7.3,32-10.2s-31.6-96.7-31.9-98.5l-3.8-21.8c0,0,42.4,6.8,46.3,8s39.1,20.4,39.1,20.4s35.8-25.8,2.3-51.9
	s-91.1-45.2-91.1-45.2l-20.7-5.8l-18-1.1l-2.7-10.2l-42.7,2.5l-44.5,18.9L375.1,502.9z"/>
<circle class="st4" cx="431.4" cy="263.7" r="33.2"/>
<path class="st7" d="M401.3,290.4l4-0.7c0,0,7.2,27.8,29.6,32.4c0,0,11-13.2,10.5-15.4s8.7-14.1,13.6-7.5s-1.2,123.8,2.9,125.9
	s12.9,4.3,5.8,12.1c-7.1,7.8-35.3,18.2-41.5,14.6s-19-34.2-24.5-44.5s-14.3-45.3-14.3-45.3s-11.3-38.3-4.3-47
	S401.3,290.4,401.3,290.4z"/>
<path class="st3" d="M433.1,434.7c-0.7,8.2-2,16.3-3.8,24.3c-1.6,6.5-3.5,10.4-5.7,10.3c-5.5-0.4-8,7.7-9.3,17
	c-1.4,9.9-1.4,21.2-2.1,25.2c-1,5.3-7.4,9.3-20.3,8.1c-7.7-0.9-15.2-2.7-22.3-5.5c-17.3-6.3-16.8-57.5-13.9-95.4
	c1.8-23.3,4.4-41.6,4.4-41.6s-5.3-15.7-7-26.5c-0.3-2-0.5-4-0.5-5.9c0.3-9.4,17.4-34.8,27.8-50.7c10.4-15.8,24.6-4.2,24.6-4.2
	l-4.9,14.9c0,0,7.6,11.8,7.7,23s18.3,19.3,24.9,24.8C436.7,355.9,436.6,401.5,433.1,434.7z"/>
<path class="st3" d="M447.6,295.1c0,0,1.2,1.4,6.7,0.7c6.6-0.8,15.6,1.4,17.7,7.7c3.9,11.5,14.7,58.4,14.7,58.4s4.5,53.5,6.6,65.4
	c2,11.8,1,22.3,3,28.5s-19.8-11.6-27.8-9.3s-13.2-27.7-12.2-38.2s1.9-21.9-0.9-32.6s2.2-39.2,2-45.8S439.6,307,447.6,295.1z"/>
<path class="st4" d="M471.1,461.5c0,0,35.2,19.2,38.6,46.5s-47.1-26.5-47.1-26.5L471.1,461.5z"/>
<path class="st4" d="M491.2,442.2c0,0,10.8,54.3,27.6,51.5s-9.4-54.6-9.4-54.6L491.2,442.2z"/>
<path class="st3" d="M548.7,679.1c0,0-8.6,9.9-10.7,8.4s-7,19-2.6,22.9s21.5,10.4,21.6,16.9s45.9,5.2,47.5-1.6s-5.7-22.4-10.9-25.3
	s-24.3-29.2-24.3-29.2S554.3,673.4,548.7,679.1z"/>
<path class="st5" d="M465.5,494.8c-8.2-5.8-30.9-7.2-51.2-8.5c-8.9-0.6-17.3-1.1-23.7-2c-6.2-0.9-11.8-6.5-16.7-15
	c-7.5-12.8-13.6-32-18.3-50.5c1.8-23.3,4.4-41.6,4.4-41.6s-5.3-15.7-7-26.5c1.2-1.7,2.7-3,4.5-4c21.5-9.2,41.9,81.4,44.5,95.6
	c0,0.2,0.1,0.5,0.1,0.6c1.3,7.3,14.9,13.6,27.1,16.1c7.5,1.5,14.5,1.6,17.7-0.4c8.5-5.2,34.5,15.6,36.5,16.2
	C485.6,475.4,477.2,503.1,465.5,494.8z"/>
<path class="st3" d="M357.6,341c0,0-15.6,7.4-8.7,41.8s20.7,92.9,41.8,95.9s63.1,2.3,74.9,10.5s20.1-19.4,18.1-20
	s-28-21.4-36.5-16.2s-42.8-3.9-44.8-15.7S379.4,331.6,357.6,341z"/>
<path class="st3" d="M469.9,324.5l17.1,39.8c0,0,1.7-0.9,3.7,5.4s2.9,11.7,6.5,15.8s19.1,62.3,19.6,65s-21.6,12.1-26.5,4.6
	S469.9,324.5,469.9,324.5z"/>
<path class="st3" d="M412.5,263.2c1.3-0.3,1.5-2,1.5-3.3c0.2-7.1,4.5-14.3,11.2-16.3c2.6-0.7,5.3-0.9,8-0.4
	c3.8,0.5,7.4,1.7,10.8,3.6c1.8,1,3.5,2.2,5.5,2.5c1.3,0.2,7,1.9,8.3,2.1c2.9,0.5,5.6,3.1,8.3,2.1c2.6-0.9,3.2-4.3,3.3-7.2
	c0.1-6.4-4.7-15.2-9-20c-3.2-3.6-8.1-5.3-12.9-6.1c-5.6-0.9-11.2-1.2-16.9-1c-7.6,0.1-15.5,0.7-22.4,4s-12.7,9.9-13,17.5
	c-0.1,1.6,0.1,3.2,0,4.8c-0.3,3.9-2.4,7.4-3.3,11.1c-1.4,5.6-0.4,11.5,2.8,16.3c2.6,3.8,6.6,7.2,6.4,11.7l5.5-5.7
	c1.7-1.3,2.3-3.6,1.4-5.6l-2-7.6c-0.5-1.4-0.6-2.9-0.2-4.3C408.1,256.1,410.4,263.8,412.5,263.2z"/>
</svg>
