<?xml version="1.0" encoding="utf-8"?>
<!-- Generator: Adobe Illustrator 22.0.0, SVG Export Plug-In . SVG Version: 6.00 Build 0)  -->
<svg version="1.1" id="a0b12775-6e5f-4473-9cb3-a305020561f5"
	 xmlns="http://www.w3.org/2000/svg" xmlns:xlink="http://www.w3.org/1999/xlink" x="0px" y="0px" viewBox="0 0 925.2 687.3"
	 style="enable-background:new 0 0 925.2 687.3;" xml:space="preserve">
<style type="text/css">
	.st0{fill:#3F3D56;}
	.st1{fill:#F2F2F2;}
	.st2{fill:#4285F4;}
	.st3{fill:#FFFFFF;}
	.st4{fill:#2F2E41;}
	.st5{fill:#FFB8B8;}
	.st6{opacity:0.1;enable-background:new    ;}
	.st7{fill:#D0CDE1;}
	.st8{fill:#A0616A;}
</style>
<title>online_cv</title>
<rect x="68.9" y="48.3" class="st0" width="799.8" height="511.7"/>
<rect x="485.9" y="140.7" class="st1" width="360.1" height="418.9"/>
<path class="st0" d="M36.7,531.4c10.9,20.3,34.2,29,34.2,29s5.5-24.2-5.5-44.5s-34.2-29-34.2-29S25.7,511.1,36.7,531.4z"/>
<path class="st2" d="M44.2,524.7c19.8,11.9,27.4,35.5,27.4,35.5s-24.4,4.3-44.2-7.5S0,517.2,0,517.2S24.4,512.9,44.2,524.7z"/>
<rect x="607.7" y="179.7" class="st3" width="218.4" height="8.8"/>
<rect x="607.7" y="199.1" class="st3" width="218.4" height="8.8"/>
<rect x="607.7" y="218.4" class="st3" width="74" height="8.8"/>
<rect x="159.2" y="444.1" class="st3" width="218.4" height="8.8"/>
<rect x="159.2" y="463.5" class="st3" width="218.4" height="8.8"/>
<rect x="159.2" y="482.8" class="st3" width="74" height="8.8"/>
<rect x="556.5" y="287.7" class="st3" width="218.4" height="8.8"/>
<rect x="556.5" y="307.1" class="st3" width="218.4" height="8.8"/>
<rect x="556.5" y="326.1" class="st3" width="218.4" height="8.8"/>
<rect x="556.5" y="345" class="st3" width="218.4" height="8.8"/>
<rect x="556.5" y="364" class="st3" width="218.4" height="8.8"/>
<rect x="556.5" y="382.9" class="st3" width="218.4" height="8.8"/>
<rect x="556.5" y="401.9" class="st3" width="218.4" height="8.8"/>
<rect x="556.5" y="420.8" class="st3" width="218.4" height="8.8"/>
<rect x="556.5" y="439.8" class="st3" width="218.4" height="8.8"/>
<rect x="556.5" y="458.7" class="st3" width="218.4" height="8.8"/>
<rect x="556.5" y="477.7" class="st3" width="218.4" height="8.8"/>
<path class="st2" d="M348,304.1c0,24-10.8,46.8-29.5,61.9c-3.4,2.8-7.1,5.3-10.9,7.4c-2.3,1.3-4.7,2.5-7.1,3.6
	c-8.1,3.6-16.7,5.7-25.5,6.5c-2.2,0.2-4.3,0.3-6.5,0.3c-4.4,0-8.7-0.4-13-1.1c-1.5-0.2-3-0.5-4.5-0.9c-2.6-0.6-5.1-1.3-7.6-2.1
	c-10.3-3.4-19.8-9-27.9-16.2c-2.1-1.8-4.1-3.8-5.9-5.9c-29.5-32.6-27-82.9,5.6-112.4s82.9-27,112.4,5.6
	C340.7,265.3,348,284.3,348,304.1z"/>
<path class="st2" d="M584.8,215.3c0.1,25.5-15,34.4-33.7,34.5c-0.4,0-0.9,0-1.3,0c-0.9,0-1.7-0.1-2.6-0.1
	c-16.9-1.1-30-10.4-30.1-34.1c-0.1-24.5,31.1-55.6,33.4-57.9l0,0c0.1-0.1,0.1-0.1,0.1-0.1S584.6,189.8,584.8,215.3z"/>
<path class="st0" d="M549.8,245.9l12.3-17.3l-12.3,19.2l0,2c-0.9,0-1.7-0.1-2.6-0.1l1.2-25.5l0-0.2l0,0l0.1-2.4l-12.5-19.2
	l12.5,17.4l0,0.5l0.9-19.3l-10.7-19.8l10.8,16.4l0.9-39.9l0-0.1l0,0.1l0,31.5l10.5-12.5l-10.6,15.2l-0.2,17.2l9.8-16.6l-9.8,19.1
	l-0.1,9.6l14.3-23.1l-14.3,26.4L549.8,245.9z"/>
<path class="st0" d="M868.3,272.4c-73.3,0-132.7,59.4-132.7,132.7v0c0,21.5-17.4,38.9-38.9,38.9c0,0,0,0,0,0h-64.4
	c-63.9,0-115.6,51.8-115.6,115.6l0,0v0h351.6L868.3,272.4L868.3,272.4z"/>
<rect x="459.8" y="48.3" class="st4" width="17.1" height="511.7"/>
<path class="st2" d="M303,40.7V27.5C303,12.3,290.7,0,275.5,0c-15.2,0-27.5,12.3-27.5,27.5v13.3h-52.1v29.4h159.2V40.7H303z
	 M275.5,7.6c8.9,0,16.1,7.2,16.1,16.1s-7.2,16.1-16.1,16.1c-8.9,0-16.1-7.2-16.1-16.1v0C259.4,14.8,266.6,7.6,275.5,7.6L275.5,7.6
	L275.5,7.6z"/>
<path class="st5" d="M282.6,298.8c0,0-7.9,22.5-3,26s-16.4,31.8-16.4,31.8l-25.6-6.9l14-23.7c0,0,1.8-23.7,1.8-27.2
	S282.6,298.8,282.6,298.8z"/>
<path class="st6" d="M282.6,298.8c0,0-7.9,22.5-3,26s-16.4,31.8-16.4,31.8l-25.6-6.9l14-23.7c0,0,1.8-23.7,1.8-27.2
	S282.6,298.8,282.6,298.8z"/>
<circle class="st5" cx="266.4" cy="294.8" r="20.8"/>
<path class="st7" d="M250.9,381.7c-2.6-0.6-5.1-1.3-7.6-2.1l4-27.3l1.2-8.4l6.3,2.4c0.9,0.3,1.8,0.7,2.9,1.1
	c1.7,0.7,3.6,0.6,5.3-0.2c6.1-2.8,9.7-13.7,9.7-13.7s0.2,3.1,0.6,8.2c0.6,9.1,1.4,24.7,1.7,41.7c-2.2,0.2-4.3,0.3-6.5,0.3
	c-4.4,0-8.7-0.4-13-1.1C253.9,382.3,252.4,382,250.9,381.7z"/>
<path class="st7" d="M256.6,330l-1.8,16.2l-0.9,7.9l-3,27.6c-2.6-0.6-5.1-1.3-7.6-2.1c-10.3-3.4-19.8-9-27.9-16.2l-3.8-13.7
	c0-0.8,0.1-1.6,0.2-2.4c0,0,0,0,0,0c0.1-0.7,0.3-1.4,0.5-2.1c0,0,0,0,0,0c0.7-2.6,2-5,3.9-6.9c4.6-4.6,35.2-19.1,35.2-19.1l0.6,1.2
	L256.6,330z"/>
<path class="st4" d="M265.9,265.4c4.6-0.2,9.5-0.2,13.4,2.2c1.8,1.2,3.4,2.8,4.6,4.5c3.8,4.8,7.1,10.8,5.7,16.7l-1.6-0.6
	c0,1.6,0.4,3.2,1,4.6c-0.2-0.7-1,0.4-0.8,1.1l1.8,5.9c-2.9-0.9-6,0.7-6.9,3.7c-0.1,0.2-0.1,0.4-0.1,0.6c-0.2-6.9-0.9-14.7-6.5-18.7
	c-2.8-2-6.4-2.6-9.8-3.2c-3.2-0.5-6.5-1-9.5,0s-5.6,4.1-4.9,7.2c-1.5-0.3-3,0.4-3.6,1.8c-0.6,1.4-0.8,2.8-0.7,4.3
	c-1.5,1-3.2-1-3.8-2.7c-1.4-4-2.7-8.3-1.9-12.5s4.2-8.2,8.4-8.2c-0.5-0.6-0.8-1.3-0.8-2.1l3.5-0.3c-0.9-0.1-1.7-0.6-2.3-1.2
	C252.6,270,263.7,265.5,265.9,265.4z"/>
<path class="st7" d="M314.3,345c-0.5,4.3-3.6,16.6-6.7,28.3c-2.3,1.3-4.7,2.5-7.1,3.6c-8.1,3.6-16.7,5.7-25.5,6.5
	c-2.2,0.2-4.3,0.3-6.5,0.3c-4.4,0-8.7-0.4-13-1.1c1.6-6.2,3.8-16.5,5.8-26.5c0.6-3,1.2-6.1,1.8-8.9c2.2-11.4,4-20.6,4-20.6
	s6.9-6.8,11-8.4c0.6-0.2,1.2-0.3,1.8-0.3c3.4,0.6,8,8.7,8,8.7s20.8,6.9,25.6,14.8C314.1,342.4,314.4,343.7,314.3,345z"/>
<path class="st7" d="M226.5,345l-1.2,25.9c-3.5-2.3-6.9-4.8-10-7.6c-2.1-1.8-4.1-3.8-5.9-5.9c1-4.4,1.8-8,2.3-10.2c0,0,0,0,0,0
	c0.3-1.2,0.4-2,0.5-2.1c0,0,0,0,0,0H226.5z"/>
<path class="st7" d="M318.5,365.9c-3.4,2.8-7.1,5.3-10.9,7.4c-2.3,1.3-4.7,2.5-7.1,3.6l-2.3-13.4l2.3-25.4l12.9,3.2l1,0.2
	L318.5,365.9z"/>
<path class="st8" d="M865.2,410.5c0,0-9,44,6,40s9-42,9-42L865.2,410.5z"/>
<path class="st7" d="M907.2,228.5h-10c0,0-11,8-10,17s-18,87-18,97s-4,13-4,19s2,10,0,13s-6,21-5,28c0.6,4.6,0.6,9.4,0,14h25
	c0,0,18-61,22-64s6-8,6-11s-2-3,3-7s2-22,2-22l7-18L907.2,228.5z"/>
<path class="st6" d="M907.2,228.5h-10c0,0-11,8-10,17s-18,87-18,97s-4,13-4,19s2,10,0,13s-6,21-5,28c0.6,4.6,0.6,9.4,0,14h25
	c0,0,18-61,22-64s6-8,6-11s-2-3,3-7s2-22,2-22l7-18L907.2,228.5z"/>
<path class="st5" d="M767.2,386c0,0-9,44,6,40s9-42,9-42L767.2,386z"/>
<polygon class="st5" points="770.2,591 764.2,616 786.2,630 792.2,600 "/>
<polygon class="st5" points="874.2,622 863.2,637 876.2,652 894.2,652 894.2,622 "/>
<path class="st4" d="M897.2,639h-6c-3-0.6-6-0.6-9,0c-6,1-14.1-8.6-14.1-8.6l-7.9,6.6c0,0-16,4-8,23l18,11c0,0,9,19,27,16s5-23,5-23
	L897.2,639z"/>
<path class="st4" d="M770.2,604l-1.5-6.7l-13.5,3.7c0,0-28-18-28,6s22,32,22,32s8-1,8,6s21,18,29,14s8-14,8-14l-2-28l-9,2
	c0,0-17-1-14-5S770.2,604,770.2,604z"/>
<path class="st4" d="M799.2,374c0,0-12,16-12,25s-4,89-4,89s-22,102-16,108s24,15,27,12s24-112,24-112l25-67l23,96c0,0-1,83,3,84
	s6,2,4,6s-5,12-5,12s25,6,30,2s6-101,0-135s1-112,1-112L799.2,374z"/>
<circle class="st5" cx="835.8" cy="150.5" r="30"/>
<path class="st5" d="M826.8,169.5c0,0,4,21,0,27s54,2,54,2s-28-32-25-38S826.8,169.5,826.8,169.5z"/>
<path class="st7" d="M801.2,204c0,0,20-26,45-21c6.7,1.3,12.9,2.7,18.3,4c19,4.4,34.9,18,41.4,36.4c1.7,4.8,2.5,9.4,1.8,13.1
	c-3,15-1.5,133.5-1.5,133.5s-8,3-7,7s8,9,1,9s-113-4-111-7S801.2,204,801.2,204z"/>
<path class="st7" d="M811.2,204h-10c0,0-11,8-10,17s-18,87-18,97s-4,13-4,19s2,10,0,13s-6,21-5,28c0.6,4.6,0.6,9.4,0,14h25
	c0,0,18-61,22-64s6-8,6-11s-2-3,3-7s2-22,2-22l7-18L811.2,204z"/>
<polygon class="st6" points="796.7,377.7 826.8,311.5 811.7,381.9 "/>
<path class="st4" d="M825.3,105.1l0-2.5c2.1-0.3,4.2-0.2,6.2,0.2c0-1.5-0.3-3-0.9-4.3c2.1,0.3,4.1,0.9,5.9,1.8l0.7-4.6l17.9,6.3
	c6.4,2.3,13.2,4.8,17.4,10.1c4.7,6,5,14.4,3.2,21.8c-1.8,7.4-5.4,14.2-8.1,21.3c-1,3-2.3,6-3.8,8.7c-5.4,8.7-17.6,11.8-27.2,8.1
	c-3.5-1.4-6.9-3.6-8.7-7c-0.9-2.1-1.7-4.2-2.3-6.4c-1.7-4.4-4.1-13.6-8.1-16.1c-1.8-1.1-4.5,3.5-6,2.1c-3.9-3.6-4-9.8-2.4-14.9
	c1.5-5.1,3.3-10.1,5.5-14.9C815.5,112.9,825.3,104.8,825.3,105.1z"/>
</svg>
