<svg id="Livello_1" data-name="Livello 1" xmlns="http://www.w3.org/2000/svg" viewBox="0 0 772 624.56"><defs><style>.cls-1{fill:#4285f4;}.cls-2{opacity:0.1;isolation:isolate;}.cls-3{fill:#2f2e41;}.cls-4{fill:#fbbebe;}.cls-5{fill:#d0cde1;}.cls-6{fill:#575a89;}.cls-7{fill:#3f3d56;}</style></defs><title>undraw_social_girl_562b</title><path class="cls-1" d="M772,413.36c0,117.2-172.8,212.2-386,212.2-114.5,0-217.4-27.4-288.1-71-46.1-28.4-78.5-63.7-91.6-102.7A122.75,122.75,0,0,1,0,413.36c0-117.2,319.9-645.9,386-212.2S772,296.16,772,413.36Z" transform="translate(0 -1)"/><path class="cls-2" d="M577.8,490.36c0,43.3-136.7,78.4-305.3,78.4-64.9,0-125.1-5.2-174.6-14.1C51.8,526.26,19.4,491,6.3,452c52.3-23.8,151.9-40,266.2-40,168.6,0,305.3,35.1,305.3,78.4Z" transform="translate(0 -1)"/><path class="cls-3" d="M357.5,44c-24.2-40.9-72.1-42.8-72.1-42.8s-46.6-6-76.6,56.3c-27.9,58-66.4,114.1-6.2,127.7l10.9-33.8,6.7,36.4a222.15,222.15,0,0,0,25.8.4c64.5-2.1,125.8.6,123.9-22.5C367.2,134.76,380.7,83.26,357.5,44Z" transform="translate(0 -1)"/><path class="cls-3" d="M199.2,402a98.84,98.84,0,0,1-3.1,13.3c-1.5,4.3-3.9,8.2-5.2,12.5-4.4,13.7,1.7,29,11.5,39.6a65.24,65.24,0,0,0,31.5,18.7c8.8,2.2,18,2.5,27.1,2.8,25.2.9,50.9,1.6,74.8-6.5a124.82,124.82,0,0,0,21.7-9.9,16.13,16.13,0,0,0,5.6-4.4c1.8-2.6,2.1-5.9,2-9.1-.1-10.7-2.2-21.3-1.7-31.9.3-5.9,1.4-11.8.8-17.7-1.2-13.3-11.8-25.3-24.9-28.1-6.8-1.5-13.8-.7-20.7,0a536.62,536.62,0,0,1-53.8,2.4c-18.3-.1-36.6-2.9-54.8-3.2-5.4-.1-5.3,1.6-7,6.8a144,144,0,0,0-3.8,14.7Z" transform="translate(0 -1)"/><path class="cls-4" d="M251.2,138.66c-.9,4.6-1.8,9.4-4.6,13.2-3.2,4.4-8.4,6.9-11.8,11-5.2,6.3-5.5,15.1-5.5,23.3,0,7.5.1,15.5,4.3,21.7,2.7,4,6.8,6.9,10.9,9.6,15.7,10.6,32.6,21.3,51.5,21.7,7.8.1,16.2-1.9,21.4-7.8a33.55,33.55,0,0,0,5.2-9.2,122.92,122.92,0,0,0,8.7-37.3c.4-6,.4-12.2-1.7-17.9-2.3-6.4-6.9-11.7-10-17.7a39.41,39.41,0,0,1-3.8-23.4,2.46,2.46,0,0,0-.1-1.7,2.27,2.27,0,0,0-2-.8l-37.5-2.7a89.44,89.44,0,0,1-10.4-1.2c-2-.4-7.4-3.3-9.3-2.5-3.6,1.3-4.5,17.9-5.3,21.7Z" transform="translate(0 -1)"/><path class="cls-2" d="M251.2,139.86c-.9,4.6-1.8,9.4-4.6,13.2-3.2,4.4-8.4,6.9-11.8,11-5.2,6.3-5.5,15.1-5.5,23.3,0,7.5.1,15.5,4.3,21.7,2.7,4,6.8,6.9,10.9,9.6,15.7,10.6,32.6,21.3,51.5,21.7,7.8.1,16.2-1.9,21.4-7.8a33.55,33.55,0,0,0,5.2-9.2,122.92,122.92,0,0,0,8.7-37.3c.4-6,.4-12.2-1.7-17.9-2.3-6.4-6.9-11.7-10-17.7a39.41,39.41,0,0,1-3.8-23.4,2.46,2.46,0,0,0-.1-1.7,2.27,2.27,0,0,0-2-.8l-37.5-2.7a89.44,89.44,0,0,1-10.4-1.2c-2-.4-7.4-3.3-9.3-2.5-3.6,1.3-4.5,17.9-5.3,21.7Z" transform="translate(0 -1)"/><circle class="cls-4" cx="287.1" cy="87.76" r="55"/><path class="cls-5" d="M259,211.86c2.9,3,5.9,6,9.7,7.7a30.67,30.67,0,0,0,12.1,2.3c9.9.3,20.7-1.5,27.5-8.7,8.9-9.2,8.6-24,15.6-34.7a8.81,8.81,0,0,1,2.2-2.5,8.49,8.49,0,0,1,3.8-.9c8.8-.1,16.5,5.6,23.4,11.1,3.1,2.4,6.3,5,8.2,8.4a28.32,28.32,0,0,1,2.8,8.5c3.4,16.8,4.5,33.9,5.6,50.9.6,9.4,1.2,18.9,1.2,28.3-.1,31.1-7.4,61.7-14.6,92-.9,3.9-2.2,8.3-5.7,10.1a14.64,14.64,0,0,1-5,1.2c-20.6,2.4-41.2,4.8-62,5.2q-12.15.15-24.3-.6a14.1,14.1,0,0,1-4.1-.7,12.72,12.72,0,0,1-4.5-3.8C239.7,371.56,239,352,239.1,334q.3-66.15,4.7-132.3c.2-3.6.3-8.1-2.3-10.9C246.2,198.46,252.8,205.46,259,211.86Z" transform="translate(0 -1)"/><path class="cls-6" d="M247.3,148.36c-1.9,3.4-15.5,11.7-18.2,14.5-14.8,15.6-41.7,15-55.2,31.7-4.8,5.9-7.2,13.2-9,20.6-2.6,10.4-3.9,21.7.4,31.4,4.1,9.4,12.9,15.9,18.8,24.3,6.5,9.2,9.4,20.4,12.2,31.3,2.1,8.1,4.1,16.3,3.3,24.6-.9,9.4-5.5,18.1-8.2,27.1s-3.2,19.9,3.1,27c4.6,5.2,11.7,7.3,18.6,8.5,8.8,1.5,17.6,1.9,26.5,2.3,7.8.3,16.5.4,22.5-4.6,4.8-4,6.8-10.4,7.1-16.6s-1-12.3-1.8-18.5c-.8-6.4-1.2-12.8-1.4-19.2q-1.8-43.2-.5-86.4c.2-6,.4-12.1-.9-17.9-1.7-7.7-5.8-14.6-9.3-21.7-6.9-14.1-10.2-27.7-9.1-43.3,1-15.3,7.7-27,1.1-15.1Z" transform="translate(0 -1)"/><path class="cls-6" d="M324.5,149.56c2.8,2.9,12.4,3.9,16,5.7,3.3,1.7,7,2.6,10.5,3.6a136.49,136.49,0,0,1,37,17,22.65,22.65,0,0,1,6.2,5.3c2,2.8,2.7,6.3,3.4,9.7,1.8,8.7,3.5,17.6,3.1,26.5-.4,9.4-3.3,18.6-6.1,27.6l-10.5,33.7c-7.9,25.2-15.8,50.6-18,76.8a181.69,181.69,0,0,0,1.6,43.6c.2,1.5.4,3.1-.5,4.2a4.2,4.2,0,0,1-2.6,1.2c-5.1.8-10-1.8-14.6-4.1a163.18,163.18,0,0,0-44.6-14.6,105.27,105.27,0,0,0,13.9-28.6,164.26,164.26,0,0,0,4.2-19.7l4.9-28.4c1.8-10.4,3.6-20.8,4.2-31.4a39.11,39.11,0,0,0-.7-11.8c-.9-3.7-2.8-7.2-4.5-10.7-8.1-16.8-11.9-36-8.7-54.4,1.4-8,4.1-16.1,3-24.2-1.1-7.8,0-13.8-2-21.5-8.1-31.2-.5-11,4.8-5.5Z" transform="translate(0 -1)"/><path class="cls-6" d="M173.8,221.06c-3.7,7.6-9.8,14.2-11.9,22.4a45.93,45.93,0,0,0-1,11.7c0,5.9-.1,12,1.7,17.6,1.2,3.6,3.1,7,4.4,10.5a37.9,37.9,0,0,1,2.5,15.6c-.4,7.4-2.9,14.5-3.1,21.9-.3,11.6,5.1,22.5,10.3,32.8a24.08,24.08,0,0,1,31.4-13.3,18.51,18.51,0,0,1,3.7,1.9c1.4-1.3,1.5-3.4,1.6-5.2.4-13.4.8-26.9,1.1-40.3.6-20.8,1.1-41.9-3.7-62.1-2.2-9.1-5.5-18.2-11.7-25.3-3.2-3.7-14.3-13.6-19.6-9.4-2.4,1.9-1.8,7-2.2,9.6A44.26,44.26,0,0,1,173.8,221.06Z" transform="translate(0 -1)"/><path class="cls-6" d="M401.9,199.06c1.7,5.4,1.8,11.2,1.9,16.9.1,11.6-.1,23.2-.5,34.9-.2,5.9-.5,12-2.3,17.7-1.2,3.7-3,7.2-4.3,11-3.7,11.2-1.7,23.3-1.4,35.1a39,39,0,0,1-1,11.3c-1.9,7.3-7.2,13.2-10.8,19.8-3.5,6.3-5.6,13.3-9.7,19.2s-11.3,10.5-18.2,8.7c-5.3-1.4-9-6-11.6-10.8a53.08,53.08,0,0,1-5.5-34.3c2.6-14.3,11-26.9,14-41.1,4.2-19.5-2.2-39.6-2-59.5a26.29,26.29,0,0,1,1.3-9.2c1.6-4.6,5-8.2,8.1-11.8a151.18,151.18,0,0,0,10.9-14.4c2.3-3.4,5.3-12,9.3-12.7,9.2-1.8,19.6,12.3,21.8,19.2Z" transform="translate(0 -1)"/><path class="cls-3" d="M127.5,393.26a54.65,54.65,0,0,0-15.1-1.6,37.55,37.55,0,0,0-35.5,39.7,35.49,35.49,0,0,0,.6,4.7c1,5.7,3.4,11.1,6,16.3,4,8.1,8.8,16.2,16.2,21.4,4.3,3,9.4,4.9,14.3,6.8l39,14.7c5.7,2.2,11.5,4.3,17.3,6.3a335,335,0,0,0,90.3,17.9c9.4.6,18.9.7,28-1.4,2.2-.5,4.5-1.3,5.7-3.1a10.31,10.31,0,0,0,1.3-4.2L298,494c.3-2.4.7-4.9-.2-7.1-1.1-2.8-3.9-4.6-6.5-6.1-25.7-14.7-55.6-22.9-77.2-43.1-5.1-4.8-9.3-12.3-15.5-15.5-7-3.7-15.3-5.8-22.5-9.1-15.9-7.3-31.5-15.8-48.6-19.8Z" transform="translate(0 -1)"/><path class="cls-2" d="M166.5,416c13.8,4.3,72,34.3,82,44.7-1.3.5-46.7-25-48.1-25.4-12.4-3.7-24.8-7.5-36.6-12.9-2.4-1.1-15.4-6.2-14.8-9.2.7-3.3,15,2,17.5,2.8Z" transform="translate(0 -1)"/><path class="cls-4" d="M338.6,528.36a3.34,3.34,0,0,0,2.2-.6,3.22,3.22,0,0,0,.7-2.5c0-7.6,0-15.3-.1-22.9-6.6-3.1-14-4.1-21.2-5.1l-33.7-4.5c.8.1-5.3,14.5-4.3,16.5,1.6,3.4,14.1,6.4,17.7,8,12.1,5.5,24.9,11.6,38.7,11.1Z" transform="translate(0 -1)"/><path class="cls-4" d="M232.7,502.26c-6.4,1-13.5,1.9-17.6,6.9-5.2,6.3-3,15.7-.5,23.5a10.38,10.38,0,0,0,2.2,4.3c1.7,1.7,4.3,1.9,6.7,2.1,5.8.4,12,.7,17.1-2.2,2.4-1.3,4.4-3.3,6.6-4.9a42.22,42.22,0,0,1,12.2-5.6,121.1,121.1,0,0,1,24.5-5c3.3-.3,6.6-.5,9.6-1.7s5.9-3.4,6.8-6.6c1.2-4.2-1.2-8.4-3.6-12.1-2.9-4.5-6-9.3-10.3-12.7-6.3-4.9-9.4-1.1-15.7,2a136.82,136.82,0,0,1-38,12Z" transform="translate(0 -1)"/><path class="cls-3" d="M216,508l-40.5-12c-4.9-1.5-9.9-2.9-15.1-2.9s-10.5,1.7-13.8,5.6c-3.1,3.7-4,8.7-4.8,13.5l-1.7,10.2c-.9,5.2-1.7,10.5-.9,15.7s3.4,10.4,8,12.9c5.6,3.1,12.5,1.6,18.7.3a197.74,197.74,0,0,1,38.3-4.1c4.8-.1,9.9,0,14.2-2.3,5.1-2.7,8.1-8.4,8.7-14.1.9-8.7-2-20.1-11.1-22.8Z" transform="translate(0 -1)"/><path class="cls-3" d="M354.5,497.56c5.2-.9,9.9-3.9,14.9-5.7,7.1-2.5,14.7-2.5,22.2-2.4,2.8,0,5.7.1,8,1.6,3.3,2.2,4.1,6.6,4.7,10.5,1.1,7.9,2.3,15.8,3.4,23.7.6,4.5,1.3,9,.3,13.4s-4,8.6-8.3,9.8c-5.3,1.4-10.5-2-15.5-4.2-12.5-5.5-27-4.1-40-8.3-2.4-.8-5-1.9-6-4.3a11.28,11.28,0,0,1-.5-4.1c.2-7.6-1.4-18,.9-25.3C340.6,495.76,348.6,497.56,354.5,497.56Z" transform="translate(0 -1)"/><path class="cls-3" d="M440.1,383.76a71,71,0,0,1,24.7-1.7c6.6.7,13.4,2.6,18.3,7.1,5.9,5.6,7.8,14.2,7.9,22.3A69.7,69.7,0,0,1,475.9,456a40.27,40.27,0,0,1-8.7,8.3,56,56,0,0,1-11.3,5.4l-87.4,34.5c-23,9.1-46.1,18.2-70.1,24.1a5.48,5.48,0,0,1-7.3-2.5.1.1,0,0,0-.1-.1,180.45,180.45,0,0,1-19.2-35,2.36,2.36,0,0,1,.3-3.3,2.51,2.51,0,0,1,.7-.4l61.8-35.5c4.4-2.5,8.9-5.1,12.6-8.7a30.46,30.46,0,0,0,6.5-9c1.3-2.7,1.4-9,3-11s7.1-2.1,9.6-2.9a78.26,78.26,0,0,0,10.5-4c13.8-6.2,26.1-15.2,39.4-22.4a112,112,0,0,1,23.9-9.7Z" transform="translate(0 -1)"/><path class="cls-2" d="M405,410.26c-10.6,8-24.4,15.3-34.9,23.5-3.6,2.8-63.5,36.5-64.3,40.9,9.8,1.7,72.4-42.1,81.3-46.5s16.9-10.5,24.7-16.6c2-1.6,10.5-6.2,4.7-8C413.4,402.66,407.4,408.66,405,410.26Z" transform="translate(0 -1)"/><path class="cls-7" d="M331.9,150.36H238.7a14.3,14.3,0,0,0-14.3,14.3v5.2h-1v11.7h1v8.2h-1v7h1v86.3a14.3,14.3,0,0,0,14.3,14.3h93.2a14.3,14.3,0,0,0,14.3-14.3V164.66A14.3,14.3,0,0,0,331.9,150.36Z" transform="translate(0 -1)"/><path class="cls-3" d="M346.8,40l-47.3-24.7-65.3,10.1-13.5,59.7,33.6-1.3,9.4-21.9v21.5l15.5-.6,9-34.9,5.6,37.2L349,84Z" transform="translate(0 -1)"/><path class="cls-4" d="M186.1,376.06c2.3,3.5,5.1,6.9,8.8,8.8,4.7,2.4,10.5,1.9,15.2-.4a26.51,26.51,0,0,0,11-11c5.1-9.1,6.2-19.9,5.6-30.3s-2.9-20.7-3.8-31c-.7-7.5-.8-15.1-.8-22.7,0-1.6,0-3.3,1-4.6,1.1-1.6,3.2-2,5.1-2.5,10.4-3.1,17.3-12.8,22.2-22.4,3.3-6.4,6.2-13.5,5.5-20.7s-5.8-14.4-13-15.2c-5.9-.6-11.4,3.2-15.7,7.3a67.32,67.32,0,0,0-19.7,39.3c-.9,7.3-.7,14.8-2.7,21.9-4.2,15.2-17.5,24.5-24.2,38.1-7.4,15-3.3,32.1,5.5,45.4Z" transform="translate(0 -1)"/><path class="cls-4" d="M381.8,318.06a28.64,28.64,0,0,1-16.1,15.4,22.34,22.34,0,0,1-14,.9,15.37,15.37,0,0,1-10.2-9.2,26.26,26.26,0,0,1-1.2-6.9c-.7-10.2-.4-20.8,3.3-30.3,1.4-3.7,3.4-7.2,4.5-11,1.3-4.3,1.5-8.9,1.7-13.4l1.2-27.9a18,18,0,0,0-.4-6.1c-1.2-4-5-6.7-8.5-9.1-8.4-5.8-16.6-12.6-20.7-22-1.2-2.9-2.1-6-1.4-9.1,1.1-5.5,6.7-9.1,12.3-10.3A27.51,27.51,0,0,1,365,200a5,5,0,0,1,.2,1.2c.5,3.1.5,6.4.9,9.5.7,6.7,2.8,13.3,4.2,19.9,3.3,16.4,1.6,33.3,4.9,49.7,2.7,13.9,13,22.8,6.6,37.8Z" transform="translate(0 -1)"/><circle class="cls-5" cx="286.6" cy="200.46" r="11.7"/></svg>